<?xml version="1.0"?>
<svg id="Layer_2" data-name="Layer 2" xmlns="http://www.w3.org/2000/svg" viewBox="0 0 58.03 7.92">
  <defs>
    
  </defs>
  <g id="Layer_1-2" data-name="Layer 1">
    <g id="Layer_2-2" data-name="Layer 2-2">
      <g id="Layer_1-2" data-name="Layer 1-2">
        <path class="cls-1" d="m50.31,3.97v-.12m7.72.12v-.12m0,0v-.3s-.04-.3-.04-.3l-.06-.29-.08-.28-.11-.28-.12-.28-.15-.26-.17-.25-.19-.24-.2-.22-.22-.2-.24-.19-.25-.17-.26-.15-.28-.12-.28-.11-.28-.08-.29-.06-.3-.04h-.37s-.3,0-.3,0l-.3.04-.29.06-.28.08-.28.11-.28.12-.26.15-.25.17-.24.19-.22.2-.2.22-.19.24-.17.25-.15.26-.12.28-.11.28-.08.28-.06.29-.04.3v.43s0,.3,0,.3l.04.3.06.29.08.28.11.28.12.28.15.26.17.25.19.24.2.22.22.2.24.19.25.17.26.15.28.12.28.11.28.08.29.06.3.04h.37s.3,0,.3,0l.3-.04.29-.06.28-.08.28-.11.28-.12.26-.15.25-.17.24-.19.22-.2.2-.22.19-.24.17-.25.15-.26.12-.28.11-.28.08-.28.06-.29.04-.3v-.3M47.75.02h.16l.11.04.1.05.09.07.07.09.05.1.04.11v.12s0,6.62,0,6.62h0v.12s-.04.11-.04.11l-.05.1-.07.09-.09.07-.1.05-.11.04h-.12s0,0,0,0h-.04l-.12-.02-.11-.04-.1-.05-.09-.07-.07-.09-.05-.1-.04-.11v-.12s0,0,0,0V.61h0v-.12s.04-.11.04-.11l.05-.1.07-.09.09-.07.1-.05.11-.04h.12m-5.66,4.93l.04-.04.09-.07.1-.05.11-.04h.23l.11.04.1.05.09.07,1.83,1.83.07.09.05.1.04.11v.23l-.04.11-.05.1-.07.09-.04.04-.09.07-.1.05-.11.04h-.23l-.11-.04-.1-.05-.09-.07-1.83-1.83-.07-.09-.05-.1-.04-.11v-.12s0-.12,0-.12l.04-.11.05-.1.07-.09Zm.74-.59h-3.32s-.17.05-.17.05l-.16.06-.15.08-.14.11-.12.12-.11.14-.08.15-.06.16-.04.17v.17s0,1.64,0,1.64h0v.12s-.04.11-.04.11l-.05.1-.07.09-.09.07-.1.05-.11.04h-.12s0,0,0,0h-.16s-.11-.04-.11-.04l-.1-.05-.09-.07-.07-.09-.05-.1-.04-.11v-.12s0,0,0,0v-2.12h0v-.21s.04-.21.04-.21l.06-.21.08-.2.11-.19.12-.18.14-.16.16-.14.18-.12.19-.11.2-.08.21-.06.21-.04h.22s0,0,0,0h3.62s.15,0,.15,0l.14-.04.13-.05.12-.08.12-.1.1-.12.08-.12.05-.13.04-.14v-.15h0v-.04h0v-.15s-.04-.14-.04-.14l-.05-.13-.08-.12-.1-.12-.12-.1-.12-.08-.13-.05-.14-.04h-.15s-4.99,0-4.99,0h-.12s-.11-.04-.11-.04l-.1-.05-.09-.07-.07-.09-.05-.1-.04-.11v-.12h0v-.04h0v-.12s.04-.11.04-.11l.05-.1.07-.09.09-.07.1-.05.11-.04h.12s0,0,0,0h5.23s.22.05.22.05l.21.06.21.08.2.11.19.12.18.14.16.16.14.18.12.19.1.2.08.21.05.21.04.22v.22s0,.04,0,.04h0v.22s-.04.22-.04.22l-.06.22-.08.21-.11.2-.12.19-.14.18-.16.16-.18.14-.19.12-.2.11-.21.08-.22.06-.22.04h-.22m-6.96-3.8v.26l-.04.1-.05.09-.06.08-.08.06-.09.05-.1.03h-.11s-6.36,0-6.36,0h-.11l-.1-.04-.09-.05-.08-.06-.06-.08-.05-.09-.03-.1v-.11s0-.15,0-.15v-.11l.04-.1.05-.09.06-.08.08-.06.09-.05.1-.03h.11s6.36,0,6.36,0h.11l.1.04.09.05.08.06.06.08.05.09.03.1v.11s0,0,0,0Zm-3.07,6.67v.12l-.04.11-.05.1-.07.09-.09.07-.1.05-.11.04h-.12s-.11,0-.11,0h-.12l-.11-.04-.1-.05-.09-.07-.07-.09-.05-.1-.04-.11v-.12s0-4.61,0-4.61v-.12l.04-.11.05-.1.07-.09.09-.07.1-.05.11-.04h.12s.11,0,.11,0h.12l.11.04.1.05.09.07.07.09.05.1.04.11v.12s0,4.61,0,4.61Zm-13.37,0v-2.12h0v-.21s.04-.21.04-.21l.06-.21.08-.2.11-.19.12-.18.14-.16.16-.14.18-.12.19-.11.2-.08.21-.06.21-.04h.22s0,0,0,0h3.66s.15,0,.15,0l.14-.04.13-.05.12-.08.12-.1.1-.12.08-.12.05-.13.04-.14v-.15h0v-.04h0v-.15s-.04-.14-.04-.14l-.05-.13-.08-.12-.1-.12-.12-.1-.12-.08-.13-.05-.14-.04h-.15s-5.02,0-5.02,0h-.12s-.11-.04-.11-.04l-.1-.05-.09-.07-.07-.09-.05-.1-.04-.11v-.12h0v-.04h0v-.12s.04-.11.04-.11l.05-.1.07-.09.09-.07.1-.05.11-.04h.12s0,0,0,0h5.26s.22.05.22.05l.22.06.21.08.2.11.19.12.18.14.16.16.14.18.12.19.1.2.08.21.05.22.04.22v.22s0,.02,0,.02v.22l-.04.22-.06.22-.08.21-.11.2-.12.19-.14.18-.16.16-.18.14-.19.12-.2.11-.21.08-.22.06-.22.04h-.22s-3.66,0-3.66,0l-.14.02-.13.04-.12.07-.11.09-.09.11-.07.12-.04.13-.02.14v2.12h0v.12l-.04.11-.05.1-.07.09-.09.07-.1.05-.11.04h-.12s0,0,0,0h-.16s-.11-.04-.11-.04l-.1-.05-.09-.07-.07-.09-.05-.1-.04-.11v-.12m-1.96,0v.12l-.04.11-.05.1-.07.09-.09.07-.1.05-.11.04h-.12s0,0,0,0h-.16s-.11-.04-.11-.04l-.1-.05-.09-.07-.07-.09-.05-.1-.04-.11v-.12h0v-3.39h0v-.25s-.04-.25-.04-.25l-.06-.25-.09-.24-.11-.23-.13-.22-.15-.2-.17-.19-.19-.17-.2-.15-.22-.13-.23-.11-.24-.09-.25-.06-.25-.04h-.26s-.11,0-.11,0h-.26s-.25.04-.25.04l-.25.06-.24.09-.23.11-.22.13-.2.15-.19.17-.17.19-.15.2-.13.22-.11.23-.09.24-.06.25-.04.25v.26h0s0,.16,0,.16h0v.25s.04.25.04.25l.06.25.09.24.11.23.13.22.15.2.17.19.19.17.2.15.22.13.23.11.24.09.25.06.25.04h.26s1.49,0,1.49,0l.11.04.1.05.09.07.07.09.05.1.04.11v.12s0,.04,0,.04v.12l-.04.11-.05.1-.07.09-.09.07-.1.05-.11.04h-.12s-1.37,0-1.37,0h-.3l-.29-.04-.29-.06-.28-.08-.28-.11-.28-.12-.26-.14-.25-.17-.23-.19-.22-.2-.2-.22-.19-.23-.17-.25-.14-.26-.12-.28-.11-.28-.08-.28-.06-.29-.04-.29v-.3s0-.16,0-.16v-.29l.04-.29.06-.29.08-.28.11-.28.12-.27.14-.26.17-.25.19-.23.2-.22.22-.2.23-.19.25-.17.26-.14.27-.12.28-.11.28-.08.29-.06.29-.04h.29s.13,0,.13,0h.29l.29.05.29.06.28.08.28.11.27.12.26.14.25.17.23.19.22.2.2.22.19.23.17.25.14.26.12.27.11.28.08.28.06.29.04.29v.29s0,3.39,0,3.39M3.78.02h.44s.29.05.29.05l.29.06.28.08.28.11.27.12.26.14.25.17.23.19.22.2.2.22.19.23.17.25.14.26.12.27.11.28.08.28.06.29.04.29v.29s0,3.39,0,3.39h0v.12s-.04.11-.04.11l-.05.1-.07.09-.09.07-.1.05-.11.04h-.12s0,0,0,0h-.16s-.11-.04-.11-.04l-.1-.05-.09-.07-.07-.09-.05-.1-.04-.11v-.12s0,0,0,0v-3.39h0v-.25s-.04-.25-.04-.25l-.06-.25-.09-.24-.11-.23-.13-.22-.15-.2-.17-.19-.19-.17-.2-.15-.22-.13-.23-.11-.24-.09-.25-.06-.25-.04h-.26s-.37,0-.37,0l-.25.05-.25.06-.24.09-.23.11-.22.13-.2.15-.19.17-.17.19-.15.2-.13.22-.11.23-.09.24-.06.25-.04.25v.26s0,3.39,0,3.39h0v.12s-.04.11-.04.11l-.05.1-.07.09-.09.07-.1.05-.11.04h-.12s0,0,0,0h-.16s-.11-.04-.11-.04l-.1-.05-.09-.07-.07-.09-.05-.1-.04-.11v-.12h0v-3.7s.04-.29.04-.29l.06-.29.08-.28.11-.28.12-.27.14-.26.17-.25.19-.23.2-.22.22-.2.23-.19.25-.17.26-.14.27-.12.28-.11.28-.08.29-.06.29-.04h.29m53.15,3.88c0,1.52-1.23,2.75-2.75,2.75s-2.75-1.23-2.75-2.75,1.23-2.75,2.75-2.75,2.75,1.23,2.75,2.75Z"></path>
      </g>
    </g>
  </g>
</svg>